<?xml version="1.0" standalone="no"?>
<!DOCTYPE svg PUBLIC "-//W3C//DTD SVG 20010904//EN"
 "http://www.w3.org/TR/2001/REC-SVG-20010904/DTD/svg10.dtd">
<svg version="1.0" xmlns="http://www.w3.org/2000/svg"
 width="466.000000pt" height="512.000000pt" viewBox="0 0 466.000000 512.000000"
 preserveAspectRatio="xMidYMid meet">

<g transform="translate(0.000000,512.000000) scale(0.100000,-0.100000)"
fill="#000000" stroke="none">
<path d="M1944 2106 c-12 -31 0 -51 31 -51 24 0 31 5 33 24 6 36 -51 60 -64
27z"/>
<path d="M960 1950 l0 -160 35 0 35 0 0 160 0 160 -35 0 -35 0 0 -160z"/>
<path d="M1120 2019 c-61 -25 -88 -82 -70 -149 14 -53 56 -80 123 -80 40 0 54
5 78 29 16 16 29 34 29 40 0 17 -56 13 -70 -4 -18 -22 -77 -19 -90 4 -5 11
-10 22 -10 25 0 3 38 6 85 6 l85 0 0 33 c0 42 -24 75 -66 93 -38 16 -59 17
-94 3z m82 -56 c29 -26 22 -33 -31 -33 -57 0 -71 12 -39 34 29 20 47 20 70 -1z"/>
<path d="M1360 2019 c-32 -13 -60 -39 -60 -56 0 -18 54 -17 70 2 16 19 44 19
64 -1 24 -24 10 -34 -45 -34 -40 0 -55 -5 -74 -25 -51 -50 -19 -115 58 -115
23 0 52 7 64 15 19 13 22 13 27 0 3 -9 18 -15 36 -15 25 0 30 4 30 24 0 14 -4
28 -10 31 -5 3 -10 31 -10 61 0 68 -12 92 -55 110 -39 16 -60 17 -95 3z m83
-149 c-11 -42 -83 -51 -83 -11 0 26 9 31 51 31 32 0 36 -3 32 -20z"/>
<path d="M1778 2014 c-16 -8 -28 -10 -28 -4 0 5 -13 10 -30 10 l-30 0 0 -116
0 -115 33 3 32 3 3 75 c3 83 12 100 52 100 35 0 40 -13 40 -106 l0 -74 35 0
35 0 0 79 c0 96 -10 125 -49 146 -37 19 -58 19 -93 -1z"/>
<path d="M1958 2022 c-16 -3 -18 -17 -18 -118 l0 -114 35 0 35 0 0 114 c0 121
-4 129 -52 118z"/>
<path d="M2118 2015 c-16 -9 -28 -11 -28 -5 0 5 -13 10 -30 10 l-30 0 0 -115
0 -115 35 0 35 0 0 78 c0 86 8 102 52 102 36 0 48 -28 48 -116 l0 -64 30 0 30
0 0 89 c0 79 -3 93 -22 116 -29 32 -83 41 -120 20z"/>
<path d="M2335 2016 c-75 -33 -83 -163 -12 -206 35 -22 78 -26 108 -10 16 9
19 7 19 -14 0 -17 -8 -27 -28 -34 -29 -10 -72 0 -72 18 0 5 -16 10 -35 10 -40
0 -45 -15 -17 -49 35 -44 152 -45 196 -2 19 19 21 34 24 156 l4 135 -30 0
c-17 0 -32 -5 -34 -12 -3 -8 -11 -7 -28 5 -29 20 -54 21 -95 3z m103 -58 c21
-21 15 -85 -10 -102 -30 -21 -44 -20 -68 4 -24 24 -26 67 -3 92 18 20 63 24
81 6z"/>
<path d="M1540 1905 l0 -115 30 0 30 0 0 68 c0 78 14 105 53 105 23 0 27 4 27
28 0 24 -4 29 -23 29 -13 0 -29 -6 -36 -12 -11 -10 -14 -10 -18 0 -3 6 -18 12
-34 12 l-29 0 0 -115z"/>
<path d="M2544 1846 c-12 -31 1 -51 33 -54 25 -2 33 1 38 18 4 12 1 27 -5 35
-16 19 -59 19 -66 1z"/>
</g>
</svg>
