<?xml version="1.0" standalone="no"?>
<!DOCTYPE svg PUBLIC "-//W3C//DTD SVG 20010904//EN"
 "http://www.w3.org/TR/2001/REC-SVG-20010904/DTD/svg10.dtd">
<svg version="1.0" xmlns="http://www.w3.org/2000/svg"
 width="64.000000pt" height="62.000000pt" viewBox="0 0 64.000000 62.000000"
 preserveAspectRatio="xMidYMid meet">

<g transform="translate(0.000000,62.000000) scale(0.100000,-0.100000)"
fill="#000000" stroke="none">
<path d="M240 418 c-54 -37 -75 -73 -75 -128 0 -60 24 -96 85 -127 53 -28 101
-29 155 -4 59 27 70 44 49 76 -14 21 -15 31 -5 51 23 52 2 113 -49 139 -44 23
-121 19 -160 -7z m94 -25 c6 -16 -8 -33 -28 -33 -5 0 -18 -7 -27 -16 -17 -16
-19 -15 -29 11 -6 15 -9 29 -8 30 36 28 83 32 92 8z m80 -25 c23 -33 20 -56
-13 -89 -33 -33 -80 -39 -105 -13 -41 40 8 81 72 60 27 -9 30 10 6 55 -15 29
-15 30 5 20 11 -6 27 -21 35 -33z m-128 -135 c24 -15 75 -15 115 2 24 9 35
-26 13 -42 -48 -35 -147 -23 -190 24 -30 32 -40 83 -23 114 12 23 13 23 37
-29 13 -29 35 -60 48 -69z"/>
</g>
</svg>
